<svg id="Layer_1" data-name="Layer 1" xmlns="http://www.w3.org/2000/svg" viewBox="0 0 368.78 118.54"><defs><style>.cls-1{fill:#FFFFFF;}</style></defs><path class="cls-1" d="M87.65,36.7V89.2H73.16V36.7H13.92V23.33H107.7V36.7Z"/><path class="cls-1" d="M111.93,89.2V23.33h14.49V89.2Z"/><path class="cls-1" d="M131.59,89.2V23.33h49.68v12.9H146V49.59h31V62.48H146V76.31h35.75V89.2Z"/><path class="cls-1" d="M227.09,89.2,213,68.12H201.59V89.2H187.1V23.33h30.11c15.53,0,24.84,8.19,24.84,21.74v.19c0,10.63-5.74,17.31-14.11,20.42L244,89.2Zm.29-43.38c0-6.21-4.33-9.41-11.39-9.41h-14.4V55.33h14.68c7.06,0,11.11-3.77,11.11-9.32Z"/><path class="cls-1" d="M287.59,89.2,273.48,68.12H262.09V89.2H247.6V23.33h30.11c15.52,0,24.84,8.19,24.84,21.74v.19c0,10.63-5.74,17.31-14.11,20.42L304.52,89.2Zm.28-43.38c0-6.21-4.33-9.41-11.38-9.41h-14.4V55.33h14.68c7.05,0,11.1-3.77,11.1-9.32Z"/><path class="cls-1" d="M345.83,89.2l-6-14.77H312l-6,14.77H291.16l28.23-66.34h13.36L361,89.2ZM325.88,40.27l-8.75,21.36h17.5Z"/><path class="cls-1" d="M77.06,96.6a2.65,2.65,0,0,1,.29,1.25,2.72,2.72,0,0,1-.29,1.26,1,1,0,0,1-.87.63h-.56l2.05,2.69H77l-2.07-2.69H73.19v2.49c0,.17-.09.25-.28.25s-.26-.08-.26-.25V96h3.54A1,1,0,0,1,77.06,96.6Zm-.26,1.25a1.64,1.64,0,0,0-.51-1.34h-3.1v2.68h3.1A1.66,1.66,0,0,0,76.8,97.85Z"/><path class="cls-1" d="M82.38,96v.54H79.12v2.41h3a.27.27,0,0,1,.27.27c0,.19-.09.28-.27.28h-3v2.42h3.26v.54H78.57V96.24a.25.25,0,0,1,.09-.19.26.26,0,0,1,.19-.08Z"/><path class="cls-1" d="M85.75,96.06a.26.26,0,0,1,.48,0l2.63,6.08a.21.21,0,0,1-.12.33.25.25,0,0,1-.34-.13l-.75-1.73H84.33l-.75,1.73a.25.25,0,1,1-.46-.2Zm1.67,4L86,96.78l-1.42,3.29Z"/><path class="cls-1" d="M89.8,96.17a.25.25,0,0,1,.28-.27.24.24,0,0,1,.27.27v5.72h3.56v.54H89.8Z"/><path class="cls-1" d="M100.32,96v.54H97.05v2.41h3a.27.27,0,0,1,.19.08.26.26,0,0,1,.09.19.25.25,0,0,1-.28.28h-3v2.42h3.27v.54H96.51V96.24a.27.27,0,0,1,.27-.27Z"/><path class="cls-1" d="M105.6,96.28v.57a4.81,4.81,0,0,0-2-.41,2,2,0,0,0-1.77.84v1.15a.64.64,0,0,0,.27.15l2,.48,1,.27a.68.68,0,0,1,.5.61v1.11a1.19,1.19,0,0,1-.61,1,3,3,0,0,1-1.7.44,4.61,4.61,0,0,1-2-.36v-.57a5,5,0,0,0,2,.4,2,2,0,0,0,1.77-.84V99.94a.55.55,0,0,0-.27-.14l-2-.5-1-.26a.67.67,0,0,1-.48-.61V97.35a1.17,1.17,0,0,1,.61-1,3,3,0,0,1,1.7-.45A4.26,4.26,0,0,1,105.6,96.28Z"/><path class="cls-1" d="M111.24,96.51h-2.13v5.72c0,.17-.09.25-.28.25a.3.3,0,0,1-.19-.07.29.29,0,0,1-.08-.18V96.51h-2.14V96h4.83Z"/><path class="cls-1" d="M114.35,96.06a.26.26,0,0,1,.48,0l2.63,6.08c.08.15,0,.26-.13.33a.24.24,0,0,1-.33-.13l-.75-1.73h-3.33l-.74,1.73a.25.25,0,1,1-.46-.2Zm1.66,4-1.42-3.29-1.42,3.29Z"/><path class="cls-1" d="M122.77,96.51h-2.13v5.72c0,.17-.09.25-.27.25a.32.32,0,0,1-.2-.07.29.29,0,0,1-.08-.18V96.51h-2.14V96h4.83Z"/><path class="cls-1" d="M127.54,96v.54h-3.27v2.41h3a.27.27,0,0,1,.19.08.26.26,0,0,1,.09.19.25.25,0,0,1-.28.28h-3v2.42h3.27v.54h-3.81V96.24A.27.27,0,0,1,124,96Z"/><path class="cls-1" d="M134.36,96.16v.59l-.76-.2-.95-.11a1.66,1.66,0,0,0-1.31.52v1.22a3.26,3.26,0,0,0,.51.91A5.83,5.83,0,0,0,133,100.3a6.5,6.5,0,0,0,1.32.91l.08-.1V98.92h.53v2.13a1.13,1.13,0,0,1-.09.41,4.74,4.74,0,0,0,1.45.43v.54a5.81,5.81,0,0,1-1.79-.53,2.76,2.76,0,0,1-1.89.58,3,3,0,0,1-1.69-.44,1.18,1.18,0,0,1-.62-1V99.87c0-.43.28-.74.83-.94a2,2,0,0,1-.3-.82V97a1,1,0,0,1,.63-.86,2.77,2.77,0,0,1,1.23-.26A4.59,4.59,0,0,1,134.36,96.16Zm-1.78,4.53a7.41,7.41,0,0,1-1.19-1.29,1.51,1.51,0,0,0-.59.4v1.31a2,2,0,0,0,1.77.84,2.14,2.14,0,0,0,1.29-.36A9.67,9.67,0,0,1,132.58,100.69Z"/><path class="cls-1" d="M138.75,96.17c0-.18.09-.27.28-.27a.24.24,0,0,1,.26.27v5.72h3.57v.54h-4.11Z"/><path class="cls-1" d="M143.92,102.23V96h.53v6.26c0,.17-.09.25-.27.25S143.92,102.4,143.92,102.23Z"/><path class="cls-1" d="M149.81,96v.54h-3.27v2.41h3a.27.27,0,0,1,.19.08.26.26,0,0,1,.09.19.25.25,0,0,1-.28.28h-3v2.76c0,.17-.09.25-.27.25s-.27-.08-.27-.25V96Z"/><path class="cls-1" d="M154.7,96v.54h-3.27v2.41h3a.3.3,0,0,1,.2.08.29.29,0,0,1,.08.19.24.24,0,0,1-.28.28h-3v2.42h3.27v.54h-3.81V96.24a.25.25,0,0,1,.09-.19.26.26,0,0,1,.19-.08Z"/><path class="cls-1" d="M160,96.28v.57a4.8,4.8,0,0,0-2-.41,2,2,0,0,0-1.77.84v1.15a.53.53,0,0,0,.26.15l2,.48,1,.27a.67.67,0,0,1,.49.61v1.11a1.17,1.17,0,0,1-.61,1,3,3,0,0,1-1.69.44,4.63,4.63,0,0,1-2-.36v-.57a5.09,5.09,0,0,0,2,.4,2,2,0,0,0,1.77-.84V99.94a.59.59,0,0,0-.28-.14l-2-.5-1-.26a.67.67,0,0,1-.49-.61V97.35a1.19,1.19,0,0,1,.61-1A3,3,0,0,1,158,95.9,4.21,4.21,0,0,1,160,96.28Z"/><path class="cls-1" d="M165.62,96.51h-2.13v5.72c0,.17-.09.25-.27.25a.28.28,0,0,1-.19-.07.26.26,0,0,1-.09-.18V96.51h-2.14V96h4.83Z"/><path class="cls-1" d="M171.46,96a.23.23,0,0,1,0,.36l-2.38,3.13v3h-.55v-3l-2.39-3.12a.23.23,0,0,1,.05-.36.21.21,0,0,1,.18-.06.25.25,0,0,1,.18.1l2.25,2.93L171.1,96a.32.32,0,0,1,.17-.1A.33.33,0,0,1,171.46,96Z"/><path class="cls-1" d="M172.53,96.17a.25.25,0,0,1,.28-.27.24.24,0,0,1,.27.27v5.72h3.56v.54h-4.11Z"/><path class="cls-1" d="M181.38,96v.54h-3.27v2.41h3a.27.27,0,0,1,.19.08.26.26,0,0,1,.09.19.24.24,0,0,1-.28.28h-3v2.42h3.27v.54h-3.81V96.24a.27.27,0,0,1,.08-.19.28.28,0,0,1,.2-.08Z"/></svg>