<svg id="Layer_1" data-name="Layer 1" xmlns="http://www.w3.org/2000/svg" viewBox="0 0 400 118.36"><defs><style>.cls-1,.cls-2{fill:#fff;}.cls-2{font-size:23.86px;font-family:Montserrat-Regular, Montserrat;}.cls-3{letter-spacing:-0.05em;}.cls-4{letter-spacing:0.02em;}.cls-5{letter-spacing:-0.02em;}.cls-6{letter-spacing:0em;}.cls-7{letter-spacing:-0.01em;}.cls-8{letter-spacing:-0.02em;}.cls-9{letter-spacing:-0.01em;}.cls-10{letter-spacing:-0.01em;}</style></defs><title>logo_tierra</title><path class="cls-1" d="M86.57,22.37V82.05H70.1V22.37H2.77V7.19H109.35V22.37Z"/><path class="cls-1" d="M114.16,82.05V7.19h16.47V82.05Z"/><path class="cls-1" d="M136.51,82.05V7.19H193V21.84H152.87V37h35.3V51.68h-35.3V67.4h40.65V82.05Z"/><path class="cls-1" d="M245.06,82.05,229,58.1H216.07V82.05H199.6V7.19h34.23c17.65,0,28.23,9.3,28.23,24.7v.22c0,12.08-6.52,19.68-16,23.2l18.29,26.74Zm.32-49.3c0-7.06-4.92-10.7-12.94-10.7H216.07v21.5h16.69c8,0,12.62-4.28,12.62-10.59Z"/><path class="cls-1" d="M313.82,82.05l-16-23.95H284.84V82.05H268.37V7.19h34.22c17.65,0,28.23,9.3,28.23,24.7v.22c0,12.08-6.52,19.68-16,23.2l18.29,26.74Zm.32-49.3c0-7.06-4.92-10.7-12.94-10.7H284.84v21.5h16.68c8,0,12.62-4.28,12.62-10.59Z"/><path class="cls-1" d="M380,82.05l-6.85-16.79H341.51l-6.84,16.79H317.88L350,6.65h15.19l32.08,75.4ZM357.34,26.44,347.4,50.72h19.89Z"/><text class="cls-2" transform="translate(70.2 110.84) scale(0.89 1)"><tspan class="cls-3">V</tspan><tspan x="15.34" y="0">alla</tspan><tspan class="cls-4" x="56.33" y="0">r</tspan><tspan x="66.26" y="0">ta | R</tspan><tspan class="cls-5" x="126.82" y="0">e</tspan><tspan class="cls-6" x="140.87" y="0">al </tspan><tspan class="cls-7" x="167.62" y="0">E</tspan><tspan x="183.39" y="0">sta</tspan><tspan class="cls-8" x="218.82" y="0">t</tspan><tspan x="228.06" y="0">e &amp; Li</tspan><tspan class="cls-9" x="291.41" y="0">f</tspan><tspan x="299.28" y="0">es</tspan><tspan class="cls-10" x="325.36" y="0">t</tspan><tspan x="334.81" y="0">yle</tspan></text></svg>