<svg id="Layer_1" data-name="Layer 1" xmlns="http://www.w3.org/2000/svg" viewBox="0 0 467.68 46.08"><defs><style>.cls-1{fill:#1d345d;}</style></defs><path class="cls-1" d="M336.08,296.24h8.08l-4-9.51Zm5.36-13.76,7.73,18.14.07.18.06.14a1.34,1.34,0,0,0,.07.18l.06.14.13.27.12.3a2.39,2.39,0,0,1,.13.28l.13.27.13.25a1.26,1.26,0,0,0,.13.23,2.33,2.33,0,0,0,.27.4l.27.33a1.72,1.72,0,0,0,.33.22,1,1,0,0,0,.4.13l1.09,0v1h-.35l-.18,0h-.88l-.7,0h-4l-.72,0h-1l-.22,0h-.42v-1l1.5-.09a1.93,1.93,0,0,0,.48,0,1.47,1.47,0,0,0,.42-.13.65.65,0,0,0,.3-.19.37.37,0,0,0,.11-.26,1.35,1.35,0,0,0,0-.33c0-.12-.07-.25-.12-.4s-.12-.34-.19-.5-.12-.32-.19-.49h0v0s0,0,0,0v0h0v-.05a.05.05,0,0,1-.05,0,.15.15,0,0,1,0-.07h0v0s0,0,0,0v0l-1.47-3.74h-9.19l-.9,2.14a.91.91,0,0,1-.06.16.31.31,0,0,0,0,.13.61.61,0,0,0-.07.14l-.06.18a1.46,1.46,0,0,1-.07.19,1.38,1.38,0,0,1-.06.16,1.74,1.74,0,0,0-.1.19l-.06.19a.22.22,0,0,0-.05.08.45.45,0,0,0,0,.12.05.05,0,0,1,0,0l0,0a.09.09,0,0,0,0,.05v0c-.06.18-.13.35-.19.52a5,5,0,0,0-.16.51c0,.15-.07.28-.09.4a1,1,0,0,0,0,.27.94.94,0,0,0,.1.43.46.46,0,0,0,.29.24,1.62,1.62,0,0,0,.48.14c.19,0,.41.06.67.08l1.18,0v1h-.39l-.17,0h-.88l-.62,0H330.7l-.59,0h-.76a.32.32,0,0,0-.14,0h-.32v-1l1.18-.09a.94.94,0,0,0,.55-.1,1.73,1.73,0,0,0,.48-.35,3.64,3.64,0,0,0,.4-.48,3.81,3.81,0,0,0,.3-.57l5.68-13,.21-.47.24-.49c.07-.17.13-.34.21-.51s.15-.34.24-.51.21-.43.3-.64.19-.43.27-.64.09-.21.13-.32a2.39,2.39,0,0,1,.16-.32c0-.11.09-.21.13-.32s.08-.21.13-.32l.24-.57c.07-.19.15-.39.24-.58s.13-.38.2-.57l.24-.58ZM306.8,301V286.66c0-.27,0-.53,0-.78s0-.47,0-.69a5.13,5.13,0,0,0-.1-.51,2.2,2.2,0,0,0-.13-.35.72.72,0,0,0-.17-.22.56.56,0,0,0-.28-.13,1.27,1.27,0,0,0-.38-.08l-.51,0-1.53-.16v-1a1.78,1.78,0,0,0,.44.08l.45,0h.9l.89.05h6.07l.77-.05h2.28a2.6,2.6,0,0,0,.4,0h1.82a4.45,4.45,0,0,0,.53,0h.52l1,0,1,0c-.06.26-.12.52-.17.77s-.1.52-.15.8,0,.29,0,.43,0,.27-.05.4,0,.29,0,.43,0,.28,0,.43a3.34,3.34,0,0,0-.05.43c0,.14,0,.27,0,.4v.77l-1.12-.06v-2.08a1.77,1.77,0,0,0,0-.24,2,2,0,0,0-.05-.24.84.84,0,0,0-.08-.21.26.26,0,0,0-.14-.11,6.28,6.28,0,0,0-.87-.27,8,8,0,0,0-1-.18l-.51,0-.52-.05-.54,0-.51-.05h-.32a1.29,1.29,0,0,1-.29,0h-2.2a.66.66,0,0,1-.21,0h-.24l-.45,0a3.49,3.49,0,0,0-.44.05l-.24,0-.21,0-.24.05a.8.8,0,0,0-.21,0v8.46l.8.1c.28,0,.57,0,.86,0s.62,0,1,0h1.09c.49,0,.92,0,1.31,0l1-.07.68-.11a.91.91,0,0,0,.4-.14.38.38,0,0,0,.1-.13,1.38,1.38,0,0,0,.06-.16,1.11,1.11,0,0,0,.05-.24c0-.1,0-.2.05-.3l.16-1.73h1v.39a.55.55,0,0,0,0,.17v.78c0,.22,0,.43,0,.64s0,.42,0,.61v2.06a1.53,1.53,0,0,0,0,.3v.88a1,1,0,0,0,0,.3V297a.32.32,0,0,0,0,.14v.29l-1-.07-.16-1.88c0-.09,0-.17-.05-.24a1.08,1.08,0,0,0-.05-.21l-.06-.17a.18.18,0,0,0-.1-.12,1.18,1.18,0,0,0-.4-.17,2.92,2.92,0,0,0-.68-.11,6.83,6.83,0,0,0-1-.08l-1.31,0h-1.09l-.52,0h-.47l-.86,0-.77,0v8.88l.21.11a.69.69,0,0,0,.24.05l.21,0,.24,0,.44.06.45,0h2.46c.56,0,1.09,0,1.61,0s1-.06,1.49-.08l1.17-.13a2.35,2.35,0,0,0,.62-.16,1.08,1.08,0,0,0,.33-.38,3.15,3.15,0,0,0,.31-.77,10.44,10.44,0,0,0,.27-1.1c.07-.42.14-.86.21-1.33l1.11-.06c-.06.28-.11.55-.16.81s-.08.55-.12.85,0,.29-.05.43,0,.27-.05.4,0,.29-.05.43,0,.28,0,.43a2.28,2.28,0,0,1,0,.26,1.77,1.77,0,0,0,0,.22.78.78,0,0,0,0,.26v1.15h-1l-.24,0h-.91a3.11,3.11,0,0,0-.43,0h-1.39a3.59,3.59,0,0,0-.47,0h-3a1.73,1.73,0,0,0-.32,0h-1.47l-1,0h-4.58l-.51,0h-.85a.32.32,0,0,0-.14,0H304v-1l1.15-.09a1.69,1.69,0,0,0,.51,0l.38-.08a1.46,1.46,0,0,0,.28-.13.4.4,0,0,0,.17-.19,1.88,1.88,0,0,0,.13-.33,4.22,4.22,0,0,0,.1-.53c0-.21,0-.45,0-.7s0-.53,0-.83Zm-11.07,1.15-.9,1.6a5.73,5.73,0,0,1-.8.46,6.61,6.61,0,0,1-.89.37l-.46.13-.47.13a3.41,3.41,0,0,0-.48.09l-.48.13-.92.18c-.3.05-.6.09-.9.11l-.81.09c-.27,0-.52,0-.75,0a16.46,16.46,0,0,1-5.19-.76,11.91,11.91,0,0,1-4.11-2.28,9.94,9.94,0,0,1-2.65-3.67,12.64,12.64,0,0,1-.89-4.86,12.82,12.82,0,0,1,.25-2.6,10.53,10.53,0,0,1,.77-2.32,10,10,0,0,1,1.23-2,10.91,10.91,0,0,1,1.65-1.68,12.64,12.64,0,0,1,4.15-2.27,18.88,18.88,0,0,1,2.47-.59,15.87,15.87,0,0,1,2.61-.2c.57,0,1.13,0,1.69.06a14.52,14.52,0,0,1,1.63.22c.55.09,1.06.19,1.53.31l1.31.33.34.08a2.09,2.09,0,0,1,.3.11l.3.08a1.69,1.69,0,0,1,.27.11c-.06.32-.12.65-.19,1s-.13.67-.19,1c0,.17,0,.34-.08.52a3.38,3.38,0,0,0-.05.53c0,.19,0,.38,0,.56s0,.36,0,.53a.45.45,0,0,1,0,.08.22.22,0,0,0,0,.08v.54l-1-.06v-2.3a.89.89,0,0,0-.21-.56,2,2,0,0,0-.62-.5c-.28-.15-.58-.29-.9-.43l-1-.43-.53-.14c-.18-.06-.36-.1-.56-.15l-.28-.05-.29,0a1.87,1.87,0,0,0-.3-.05l-.31,0h-.19a.38.38,0,0,1-.16,0h-.49a.33.33,0,0,1-.15,0h-.32a10.21,10.21,0,0,0-4,.72,7,7,0,0,0-2.87,2.15,9.76,9.76,0,0,0-1.76,3.16,12,12,0,0,0-.57,3.77,12.22,12.22,0,0,0,.71,4.27,9.1,9.1,0,0,0,2.16,3.3,9.19,9.19,0,0,0,3.35,2.14,12.36,12.36,0,0,0,4.28.7h.45a3.4,3.4,0,0,0,.45,0,1.73,1.73,0,0,0,.45,0l.44-.08a10.11,10.11,0,0,0,1.33-.27,12.35,12.35,0,0,0,1.26-.4c.43-.17.81-.34,1.17-.51a5.72,5.72,0,0,0,.94-.57Zm-40.27-18.62a10,10,0,0,0-3.61.72,6.11,6.11,0,0,0-2.52,2,8.73,8.73,0,0,0-1.47,2.9,12.77,12.77,0,0,0-.48,3.61v.58a.37.37,0,0,0,0,.11.36.36,0,0,1,0,.11,14.15,14.15,0,0,0,.64,3.83,15.34,15.34,0,0,0,1.63,3.52,6.88,6.88,0,0,0,2.71,2.49,8.76,8.76,0,0,0,3.93.83,8.17,8.17,0,0,0,3.47-.7,6.34,6.34,0,0,0,2.47-2.11,10.28,10.28,0,0,0,1.49-3.21,15.19,15.19,0,0,0,.49-4,15.76,15.76,0,0,0-.54-4.28,10.46,10.46,0,0,0-1.63-3.39,6.82,6.82,0,0,0-2.73-2.17,9.46,9.46,0,0,0-3.88-.73Zm-.16,22a12.58,12.58,0,0,1-4.46-.76,10.47,10.47,0,0,1-3.65-2.31,9.74,9.74,0,0,1-2.43-3.69,13.67,13.67,0,0,1-.8-4.81,12.72,12.72,0,0,1,.8-4.55,10.81,10.81,0,0,1,2.43-3.75,9.89,9.89,0,0,1,3.8-2.52,13.91,13.91,0,0,1,5-.83,14.61,14.61,0,0,1,4.66.7,11,11,0,0,1,3.74,2.11,8.54,8.54,0,0,1,2.46,3.41,13.47,13.47,0,0,1-.06,9.47,12.14,12.14,0,0,1-2.69,4,11.55,11.55,0,0,1-4,2.67A13,13,0,0,1,255.3,305.48Z" transform="translate(-162.27 -282.26)"/><path class="cls-1" d="M442.75,301V286.66c0-.27,0-.53,0-.78s0-.47-.05-.69a3.29,3.29,0,0,0-.1-.51,1.52,1.52,0,0,0-.13-.35.72.72,0,0,0-.17-.22A.57.57,0,0,0,442,284a1.41,1.41,0,0,0-.39-.08l-.51,0-1.4-.16v-1a.89.89,0,0,0,.33.08l.34,0h.7l.62.05h2.72l.27-.05h.35l.1,0h.12l15.27,18.78h.1V286.66c0-.27,0-.53,0-.78s0-.47-.05-.69a3.35,3.35,0,0,0-.09-.51c-.05-.15-.09-.26-.13-.35a.63.63,0,0,0-.18-.22.49.49,0,0,0-.27-.13,1.27,1.27,0,0,0-.38-.08l-.51,0-1.41-.16v-1a1,1,0,0,0,.32.08l.32,0h.64l.62.05h2.73a1.66,1.66,0,0,0,.32,0h.93a1.73,1.73,0,0,0,.32,0h.81l.18,0h.35v.89l-1.4.1a.9.9,0,0,1-.28.08h-.24a1.12,1.12,0,0,1-.22.05l-.16.05a.6.6,0,0,0-.25.13.69.69,0,0,0-.2.22,1,1,0,0,0-.14.35c0,.15-.06.32-.08.51s0,.45-.05.71,0,.53,0,.83v18a.1.1,0,0,0,0,.08V305a.09.09,0,0,0,0,0h0v.29a.09.09,0,0,0,0,.05v.1l-2.87-.52-15.05-18.68h-.06V301c0,.34,0,.64,0,.9s0,.49,0,.7.05.39.08.53a.84.84,0,0,0,.15.33.35.35,0,0,0,.19.19,2.1,2.1,0,0,0,.26.13l.38.08.51.08,1.4,0v1h-.35l-.17,0h-.82a1.66,1.66,0,0,0-.32,0h-.92a1.73,1.73,0,0,0-.32,0h-2.73l-.63,0h-.81a.32.32,0,0,0-.14,0h-.32v-1l1.4-.09a1.69,1.69,0,0,0,.51,0l.39-.08a1.69,1.69,0,0,0,.27-.13.4.4,0,0,0,.17-.19,1.33,1.33,0,0,0,.13-.33,3,3,0,0,0,.1-.53c0-.21,0-.45.05-.7s0-.53,0-.83Zm-13.4-14.34V301c0,.34,0,.64,0,.9s0,.49.05.7a4.67,4.67,0,0,0,.08.53.84.84,0,0,0,.14.33.51.51,0,0,0,.2.21l.25.14.38.08a2,2,0,0,0,.51.05l1.54,0v1l-1.22-.05h-1.18l-1.13,0H426.1a2.47,2.47,0,0,0-.39,0H424l-.88.05v-1l1.53-.09a2.17,2.17,0,0,0,.51,0,3.08,3.08,0,0,0,.39-.07,1.71,1.71,0,0,0,.27-.14.51.51,0,0,0,.17-.21,1.33,1.33,0,0,0,.13-.33,3,3,0,0,0,.1-.53c0-.21,0-.45.05-.7s0-.53,0-.83V286.66c0-.27,0-.53,0-.78s0-.47-.05-.69a3.29,3.29,0,0,0-.1-.51,1.52,1.52,0,0,0-.13-.35.72.72,0,0,0-.17-.22.57.57,0,0,0-.27-.13,1.41,1.41,0,0,0-.39-.08l-.51,0-1.53-.16v-1c.3,0,.59.08.88.1l.84,0h.84a2.47,2.47,0,0,0,.39,0H429l1.13,0h1.18l1.22-.05v.89l-1.54.1a.77.77,0,0,1-.27.08h-.24a1.12,1.12,0,0,1-.22.05l-.16.05a.6.6,0,0,0-.25.13.69.69,0,0,0-.2.22,1,1,0,0,0-.14.35c0,.15-.06.32-.08.51s0,.45-.05.71,0,.53,0,.83ZM414,288h-1l-.19-1.82a2.33,2.33,0,0,1,0-.28.92.92,0,0,0-.08-.27.79.79,0,0,0-.1-.27l-.15-.24-.2-.19a1.44,1.44,0,0,0-.22-.19l-.27-.19-.34-.23a5.5,5.5,0,0,0-.6-.28,5.92,5.92,0,0,0-.71-.23,2.34,2.34,0,0,0-.38-.09l-.35-.07a2.34,2.34,0,0,1-.38,0,2.56,2.56,0,0,0-.39,0h-.08a.11.11,0,0,1-.08,0h-.67l-.09,0h-.39a4.78,4.78,0,0,0-1.47.43,5.88,5.88,0,0,0-1.34.91,3.69,3.69,0,0,0-1,1.41,5.26,5.26,0,0,0-.31,1.88,3.73,3.73,0,0,0,.27,1.47,2.88,2.88,0,0,0,.84,1.15,4.63,4.63,0,0,0,1.62.85,13.2,13.2,0,0,0,2.53.49,22.59,22.59,0,0,1,3,.54,10.68,10.68,0,0,1,2.33.9,3.36,3.36,0,0,1,1.49,1.47,5,5,0,0,1,.49,2.33,7.82,7.82,0,0,1-.73,3.5,6.44,6.44,0,0,1-2.18,2.47,12.06,12.06,0,0,1-3.06,1.5,11.9,11.9,0,0,1-3.32.55h-.35c-.45,0-.88,0-1.3-.07a9.8,9.8,0,0,1-1.26-.22l-.59-.13-.53-.13a5.06,5.06,0,0,0-.51-.14l-.45-.11-.12-.05-.13-.05a.2.2,0,0,1-.11,0l-.11,0a1,1,0,0,0-.2-.11l-.16-.08c0-.11,0-.22.05-.32a3.06,3.06,0,0,1,0-.32v-.15a.55.55,0,0,1,0-.17.89.89,0,0,1,0-.15.71.71,0,0,0,0-.14c0-.21,0-.43,0-.64s0-.42,0-.64v-2.36l1-.06.25,2.13a1.79,1.79,0,0,0,.5,1,4.2,4.2,0,0,0,1.23.85,8.14,8.14,0,0,0,1.66.57,8.26,8.26,0,0,0,1.82.19,6.39,6.39,0,0,0,2.06-.32,7,7,0,0,0,1.87-.95,4.2,4.2,0,0,0,1.34-1.55,4.7,4.7,0,0,0,.45-2.1,4.31,4.31,0,0,0-.4-1.91,2.7,2.7,0,0,0-1.2-1.21,8.17,8.17,0,0,0-1.8-.74,12.72,12.72,0,0,0-2.22-.41,17.26,17.26,0,0,1-3.23-.66,7.57,7.57,0,0,1-2.17-1,4,4,0,0,1-1.2-1.58,5.7,5.7,0,0,1-.4-2.19,7.21,7.21,0,0,1,.55-2.92,5.36,5.36,0,0,1,1.62-2.12,10.31,10.31,0,0,1,2.29-1.39,9.82,9.82,0,0,1,2.5-.72h.15a.32.32,0,0,0,.14,0h.47l.17,0h.29q.68,0,1.29.06a7.5,7.5,0,0,1,1.2.22l1.09.27c.34.1.66.2.95.31l.34.13.3.12.15.07.17.06.15.05.14.05a7.9,7.9,0,0,0-.14.8c0,.25-.07.51-.12.76s0,.51-.08.75-.05.49-.08.72V287a.68.68,0,0,0,0,.19V288ZM362.8,301V286.66c0-.27,0-.53,0-.78s0-.47-.05-.69a2.43,2.43,0,0,0-.1-.51,2.32,2.32,0,0,0-.12-.35,1,1,0,0,0-.18-.22.57.57,0,0,0-.27-.13,1.41,1.41,0,0,0-.39-.08l-.51,0-1.4-.16v-1a.94.94,0,0,0,.33.08l.34,0h.7l.62.05h2.72l.27-.05h.35l.1,0h.13l15.26,18.78h.1V286.66c0-.27,0-.53,0-.78s0-.47-.05-.69a3.35,3.35,0,0,0-.09-.51,2.2,2.2,0,0,0-.13-.35.72.72,0,0,0-.17-.22A.56.56,0,0,0,380,284a1.27,1.27,0,0,0-.38-.08l-.51,0-1.41-.16v-1a1,1,0,0,0,.32.08l.32,0h.64l.62.05h2.74a1.63,1.63,0,0,0,.31,0h.93a1.73,1.73,0,0,0,.32,0h.81l.18,0h.35v.89l-1.4.1a.92.92,0,0,1-.27.08h-.24a1.2,1.2,0,0,1-.23.05l-.16.05a.6.6,0,0,0-.25.13.56.56,0,0,0-.19.22.81.81,0,0,0-.15.35c0,.15-.06.32-.08.51s0,.45-.05.71,0,.53,0,.83v18a.1.1,0,0,0,0,.08V305a.09.09,0,0,0,0,0h0v.29a.09.09,0,0,0,0,.05v.1l-2.87-.52-15-18.68h-.07V301c0,.34,0,.64,0,.9s0,.49,0,.7a3.15,3.15,0,0,0,.08.53.84.84,0,0,0,.14.33.39.39,0,0,0,.19.19l.26.13.38.08.51.08,1.41,0v1H367l-.17,0H366a1.63,1.63,0,0,0-.31,0h-.93a1.73,1.73,0,0,0-.32,0h-2.73l-.62,0h-.82a.32.32,0,0,0-.14,0h-.32v-1l1.4-.09a1.66,1.66,0,0,0,.51,0l.39-.08a1.69,1.69,0,0,0,.27-.13.47.47,0,0,0,.18-.19,2,2,0,0,0,.12-.33,2.27,2.27,0,0,0,.1-.53c0-.21,0-.45.05-.7s0-.53,0-.83Z" transform="translate(-162.27 -282.26)"/><path class="cls-1" d="M505.88,301V286.66c0-.27,0-.53,0-.78s0-.47-.05-.69a3.35,3.35,0,0,0-.09-.51c-.05-.15-.09-.26-.13-.35a.63.63,0,0,0-.18-.22.49.49,0,0,0-.27-.13,1.27,1.27,0,0,0-.38-.08l-.51,0-1.54-.16v-1a1.78,1.78,0,0,0,.45.08l.45,0h.89l.9.05h6.07l.76-.05h2.29a2.6,2.6,0,0,0,.4,0h1.82a4.41,4.41,0,0,0,.52,0h.53l1,0,1,0-.18.77c-.05.26-.1.52-.14.8s0,.29-.05.43,0,.27,0,.4,0,.29,0,.43,0,.28,0,.43,0,.29,0,.43a2.75,2.75,0,0,0,0,.4v.77l-1.12-.06v-2.08a1.77,1.77,0,0,0,0-.24,2,2,0,0,0,0-.24.84.84,0,0,0-.08-.21.25.25,0,0,0-.15-.11,5.75,5.75,0,0,0-.86-.27,8.63,8.63,0,0,0-1-.18l-.51,0-.51-.05-.54,0-.51-.05h-.32a1.29,1.29,0,0,1-.29,0h-2.2a.76.76,0,0,1-.21,0h-.24l-.45,0a3.29,3.29,0,0,0-.44.05l-.24,0-.21,0-.24.05a.65.65,0,0,0-.21,0v8.46l.8.1c.28,0,.56,0,.86,0s.62,0,1,0h1.09c.49,0,.92,0,1.31,0l1-.07.68-.11a1,1,0,0,0,.4-.14.57.57,0,0,0,.1-.13,1.38,1.38,0,0,0,.06-.16,1.11,1.11,0,0,0,.05-.24c0-.1,0-.2,0-.3l.16-1.73h1v.39a.38.38,0,0,0,0,.17v.78c0,.22,0,.43-.05.64s0,.42,0,.61v2.06a1.53,1.53,0,0,0,0,.3v.88a1.53,1.53,0,0,0,0,.3V297a.23.23,0,0,0,0,.14v.29l-1-.07-.16-1.88c0-.09,0-.17,0-.24a1.08,1.08,0,0,0-.05-.21l-.06-.17a.2.2,0,0,0-.1-.12,1.28,1.28,0,0,0-.4-.17,2.92,2.92,0,0,0-.68-.11,6.83,6.83,0,0,0-1-.08l-1.31,0h-1.09l-.53,0h-.46l-.86,0-.77,0v8.88l.21.11a.6.6,0,0,0,.24.05l.21,0,.24,0,.44.06.45,0h2.46c.55,0,1.09,0,1.61,0s1-.06,1.49-.08l1.16-.13a2.34,2.34,0,0,0,.63-.16,1.18,1.18,0,0,0,.33-.38,2.81,2.81,0,0,0,.3-.77A8.36,8.36,0,0,0,519,301c.07-.42.14-.86.2-1.33l1.12-.06c-.06.28-.11.55-.16.81s-.08.55-.13.85,0,.29,0,.43,0,.27-.05.4,0,.29,0,.43,0,.28,0,.43a2.26,2.26,0,0,1,0,.26,2,2,0,0,0,0,.22,1.15,1.15,0,0,0,0,.26v1.15h-1l-.23,0h-.91l-.44,0h-1.39a3.44,3.44,0,0,0-.46,0h-3l-.32,0h-1.47l-1,0h-4.58l-.51,0h-.85a.32.32,0,0,0-.14,0h-.29v-1l1.15-.09a1.69,1.69,0,0,0,.51,0l.38-.08a1.13,1.13,0,0,0,.27-.13.37.37,0,0,0,.18-.19,3.26,3.26,0,0,0,.13-.33,3,3,0,0,0,.09-.53c0-.21,0-.45.05-.7s0-.53,0-.83Zm-15.17.71v-3.23a1.31,1.31,0,0,0-.06-.41.87.87,0,0,0-.16-.32.64.64,0,0,0-.33-.23,3,3,0,0,0-.53-.09l-2.65-.29v-1a2.94,2.94,0,0,0,.49.08l.5,0a3.64,3.64,0,0,0,.48,0h4.37l1,0c.33,0,.66,0,1-.05l.13.74-.93.32-.2.17a.44.44,0,0,0-.11.18.82.82,0,0,0,0,.32v5.88l0,.08h0l0,0h-.11s0,0-.05,0h-.05l-.68.19-.72.19-.72.19c-.25.06-.48.12-.72.16l-1.42.26-1.39.25c-.47.07-.9.12-1.29.16a11.42,11.42,0,0,1-1.14.07,16.92,16.92,0,0,1-4.95-.69,13.08,13.08,0,0,1-4.15-2.13,8.58,8.58,0,0,1-2.83-3.62,13.44,13.44,0,0,1-.94-5.22,11.29,11.29,0,0,1,1-4.75,10.23,10.23,0,0,1,2.87-3.65,12.82,12.82,0,0,1,4.33-2.38,17.22,17.22,0,0,1,5.32-.78c.64,0,1.25,0,1.82.06s1.11.11,1.6.19l1.37.24a10.92,10.92,0,0,1,1.22.27l.55.18.5.14.46.11.4.11-.24,1a10.27,10.27,0,0,0-.17,1c0,.17-.05.34-.08.52s-.06.36-.08.53a3.43,3.43,0,0,1,0,.56,4.84,4.84,0,0,0,0,.53v.7l-1-.06v-1.7a1.91,1.91,0,0,0-.19-.89,1.76,1.76,0,0,0-.54-.64,6,6,0,0,0-.8-.48,7.56,7.56,0,0,0-1-.41h0s0,0,0,0h-.05s0,0,0,0h0a7.85,7.85,0,0,0-.84-.22c-.31-.07-.65-.13-1-.19s-.74-.08-1.18-.12-.93,0-1.44,0a10.9,10.9,0,0,0-4,.68,7.62,7.62,0,0,0-2.91,2,8.9,8.9,0,0,0-1.76,3.08,12.45,12.45,0,0,0-.57,3.88,13.34,13.34,0,0,0,.67,4.36,10.42,10.42,0,0,0,2,3.5,8.55,8.55,0,0,0,3.24,2.3,11.61,11.61,0,0,0,4.36.77c.62,0,1.19,0,1.71-.08a8.16,8.16,0,0,0,1.39-.27,4.64,4.64,0,0,0,1-.35.83.83,0,0,0,.4-.42v0l0,0v0h0a.09.09,0,0,1,0-.05v-.06a1.46,1.46,0,0,0,.05-.2,1.41,1.41,0,0,0,0-.22v-.13a.27.27,0,0,1,0-.12v-.48Z" transform="translate(-162.27 -282.26)"/><path class="cls-1" d="M534.39,284.33V301c0,.34,0,.64,0,.9s0,.49,0,.7a4.67,4.67,0,0,0,.08.53.84.84,0,0,0,.15.33.43.43,0,0,0,.19.21l.25.14.39.08a2,2,0,0,0,.51.05l1.53,0v1l-1.21-.05h-1.18l-1.14,0h-2.87a2.6,2.6,0,0,0-.4,0h-1.68l-.88.05v-1l1.54-.09a2.17,2.17,0,0,0,.51,0l.38-.07a1.13,1.13,0,0,0,.27-.14.46.46,0,0,0,.18-.21,3.26,3.26,0,0,0,.13-.33,3,3,0,0,0,.09-.53c0-.21,0-.45.05-.7s0-.53,0-.83V286.66c0-.27,0-.53,0-.78s0-.47-.05-.69a3.35,3.35,0,0,0-.09-.51c-.05-.15-.09-.26-.13-.35a.63.63,0,0,0-.18-.22.49.49,0,0,0-.27-.13,1.34,1.34,0,0,0-.38-.08l-.51,0-1.31-.16v-1a1.3,1.3,0,0,0,.41.08l.45,0h.89l.88.05h5.59l.94-.05h1.17l.24,0h.73a10.26,10.26,0,0,1,2.81.33,4.32,4.32,0,0,1,1.82,1,5.68,5.68,0,0,1,1,1.36,4.43,4.43,0,0,1,.48,1.48v.4a.11.11,0,0,0,0,.08v.16a5.55,5.55,0,0,1-.48,2.33,4.94,4.94,0,0,1-1.44,1.82,10.21,10.21,0,0,1-2,1.26,9.45,9.45,0,0,1-2.2.72l0,0h-.05l7.25,9.39a1.51,1.51,0,0,0,.38.47,1.54,1.54,0,0,0,.48.24l.53.11.56.08v.89h-.19a.3.3,0,0,0-.12,0h-.49l-.38,0h-1.82a.28.28,0,0,0-.13,0h-.5s0,0,0,0h-.56a.11.11,0,0,0-.08,0h-.19l-.18-.17a1.1,1.1,0,0,1-.14-.21.44.44,0,0,0-.08-.11.44.44,0,0,1-.08-.11.32.32,0,0,1-.1-.1.44.44,0,0,0-.06-.1l0,0a.08.08,0,0,1,0,0,.05.05,0,0,1,0,0,.06.06,0,0,1,0,0l-.06-.06s0,0,0-.06l-.12-.15-.13-.14-.08-.15a.76.76,0,0,0-.11-.14l-5.88-7.95-.24-.27a1.55,1.55,0,0,0-.24-.27c-.08-.11-.17-.21-.25-.31l-.26-.27a.44.44,0,0,0-.08-.11.44.44,0,0,1-.08-.11.22.22,0,0,1-.09-.1.28.28,0,0,0-.1-.09l-.18-.2a1.33,1.33,0,0,1-.14-.19l.19-.44a.66.66,0,0,0,.21.08h1.64l.32-.05H538l.09,0h.16l.15,0,.17-.05a5.93,5.93,0,0,0,1.57-.53,5.2,5.2,0,0,0,1.34-1,3.89,3.89,0,0,0,.94-1.34,4.26,4.26,0,0,0,.3-1.63,5.14,5.14,0,0,0-.38-2.11,3,3,0,0,0-1.15-1.34,7.09,7.09,0,0,0-1.58-.69,6.89,6.89,0,0,0-1.74-.27h-.19c-.36,0-.7,0-1,0l-.85.1a5,5,0,0,0-.71.11l-.69.15Z" transform="translate(-162.27 -282.26)"/><path class="cls-1" d="M524.07,326.3c0,1-.1,1-.59,1.13s-.49.1-.49.26.07.16.26.16,1-.06,1.46-.06c.22,0,1,.06,1.25.06s.36-.06.36-.19-.06-.2-.57-.26-.54-.47-.54-1.33V321c0-1,0-1.28.65-1.34.35,0,.46,0,.46-.21s-.17-.19-.26-.19-1.07.06-1.38.06c-.1,0-1.07-.06-1.37-.06-.15,0-.32.06-.32.22s.14.18.53.21.55.33.55,1.31Zm-6.69-7.07c-.36,0-1,.06-1.3.06s-1.12-.06-1.34-.06-.27.06-.27.2.11.18.44.2.68.09.68.52a3.8,3.8,0,0,1-.36,1.27l-2.11,5-2.2-5.46a2.78,2.78,0,0,1-.27-.92c0-.19.15-.39.59-.42s.53,0,.53-.23-.06-.2-.36-.2-1,.06-1.31.06c-.13,0-1.22-.06-1.55-.06s-.32.06-.32.2.16.19.29.2c.49.06.7.16,1,1l2.89,7.22c.14.36.14.37.39.37s.21,0,.33-.33l2.87-6.79c.27-.63.53-1.25,1.1-1.38s.54-.14.54-.26S517.61,319.23,517.38,319.23Zm-16.74,7.07c0,1-.1,1-.58,1.13s-.49.1-.49.26.07.16.26.16,1-.06,1.46-.06c.22,0,1,.06,1.25.06s.36-.06.36-.19-.06-.2-.57-.26-.54-.47-.54-1.33V321c0-1,0-1.28.65-1.34.35,0,.46,0,.46-.21s-.17-.19-.26-.19-1.08.06-1.38.06c-.1,0-1.07-.06-1.38-.06-.14,0-.31.06-.31.22s.14.18.53.21.54.33.54,1.31Zm-11.63.95v-6.61c0-.72.08-.9.6-1s.5-.05.5-.21-.11-.22-.31-.22-1,.06-1.3.06c-.16,0-1.17-.06-1.53-.06-.16,0-.19.15-.19.23s.06.16.57.22.51.46.51,1v5.68c0,.79-.06,1-.64,1.07-.34,0-.45.05-.45.23s.15.19.3.19l.83,0,.82,0h3.95l.11.25c.12.25.13.3.25.3s.16,0,.28-.42l.56-1.56a2.07,2.07,0,0,0,.16-.51.16.16,0,0,0-.16-.15c-.11,0-.14,0-.31.31l-.83,1.24Zm-14.26-3.46h-2.57l1.35-3.75h0Zm.19.54.4,1.26a4.34,4.34,0,0,1,.35,1.25c0,.33-.31.56-.81.59-.29,0-.4,0-.4.22s.2.2.36.2c.34,0,1.15-.06,1.72-.06.32,0,1.08.06,1.42.06.12,0,.23,0,.23-.2s0-.15-.46-.23-.76-.25-1.33-2l-1.51-4.68c-.07-.21-.36-1.25-.42-1.39s-.11-.14-.27-.14h-.72c-.21,0-.27,0-.31.17-.26.79-.55,1.58-.84,2.37l-1.39,3.8c-.42,1.14-.64,1.8-1.43,1.91-.19,0-.36.05-.36.23s.12.19.21.19,1-.06,1.52-.06.94.06,1.24.06a.2.2,0,0,0,.23-.2c0-.19-.16-.2-.42-.22s-.77-.1-.77-.63a4.48,4.48,0,0,1,.33-1.21l.47-1.26ZM462.65,326l-5.45-6.49c-.2-.23-.29-.32-.39-.32s-.6.06-.83.06-.77-.06-1-.06-.32.09-.32.2a.19.19,0,0,0,.17.2,1.81,1.81,0,0,1,1,.31v6.39c0,.5,0,1.05-.49,1.09s-.7.07-.7.24,0,.19.23.19c0,0,.83-.06,1.19-.06s1,.06,1.16.06.31-.06.31-.2-.06-.17-.59-.25-.51-.28-.51-1v-5.93l6.19,7.34c.23.28.26.3.39.3s.22-.13.22-.59v-6.83c0-.6.1-1,.47-1,.65-.06.69-.06.69-.23s-.09-.22-.23-.22c-.3,0-.82.06-1.18.06s-1.06-.06-1.2-.06a.23.23,0,0,0-.25.2c0,.15.06.18.53.23s.56.15.56,1.11Zm-15.93.26c0,1-.1,1-.59,1.13s-.49.1-.49.26.08.16.26.16,1-.06,1.47-.06c.21,0,1,.06,1.25.06s.36-.06.36-.19-.06-.2-.58-.26-.53-.47-.53-1.33V321c0-1,0-1.28.65-1.34.34,0,.46,0,.46-.21s-.18-.19-.26-.19-1.08.06-1.38.06c-.1,0-1.08-.06-1.38-.06-.14,0-.32.06-.32.22s.15.18.54.21.54.33.54,1.31Zm-12.5-6.51a5,5,0,0,1,.95-.08c1.45,0,2.2.79,2.2,1.89,0,1.45-1.08,2-2.46,2a6,6,0,0,1-.69,0Zm0,4.21a9,9,0,0,0,.91,0,3.45,3.45,0,0,0,.58,0l1.54,2.2c1.11,1.59,1.8,1.82,2.71,1.82.21,0,.64,0,.64-.21s-.05-.1-.06-.13a1.59,1.59,0,0,0-.33-.1c-1-.38-2.76-3-3.3-3.87a2.41,2.41,0,0,0,1.78-2.22c0-.76-.39-2.33-2.95-2.33a12.36,12.36,0,0,0-1.29.07c-.22,0-.75.06-1,.06s-.85-.06-1.19-.06-.32,0-.32.2,0,.16.52.23.57.48.57,1.32v5.28c0,.76-.07,1.1-.53,1.16s-.56.06-.56.24.14.19.26.19,1.16-.06,1.39-.06c0,0,1,.06,1.27.06s.4,0,.4-.2-.1-.19-.52-.25-.56-.43-.56-1.12Zm-11.08-.21h-2.57l1.35-3.75h0Zm.19.54.4,1.26a4.34,4.34,0,0,1,.35,1.25c0,.33-.31.56-.81.59-.29,0-.4,0-.4.22s.2.2.36.2c.34,0,1.15-.06,1.72-.06.32,0,1.08.06,1.42.06.12,0,.23,0,.23-.2s0-.15-.46-.23c-.59-.12-.76-.25-1.33-2l-1.51-4.68c-.07-.21-.36-1.25-.42-1.39s-.11-.14-.27-.14h-.72c-.21,0-.27,0-.31.17-.26.79-.55,1.58-.84,2.37l-1.39,3.8c-.42,1.14-.65,1.8-1.44,1.91-.18,0-.36.05-.36.23s.13.19.22.19,1-.06,1.52-.06c.39,0,.94.06,1.24.06a.21.21,0,0,0,.23-.2c0-.19-.16-.2-.42-.22s-.77-.1-.77-.63a4.48,4.48,0,0,1,.33-1.21l.47-1.26Zm-16.62,1.87-2.79-5.92a8.17,8.17,0,0,1-.37-.93c0-.06,0-.12-.13-.12s-.65.06-.94.06-.76-.06-1-.06-.29.12-.29.22,0,.16.44.21c.64.09.64.43.64,1.11v5.46c0,.9-.05,1.17-.56,1.2s-.61.07-.61.23,0,.19.28.19.7-.06,1.13-.06c.25,0,.89.06,1.19.06.13,0,.35,0,.35-.19s-.25-.2-.36-.2c-.81,0-.82-.51-.82-1.12v-5.59h0l3.19,6.73c.17.37.2.4.31.4s.13,0,.3-.4l3.22-6.74h0v5.54c0,.89-.06,1.1-.62,1.17s-.47.07-.47.23,0,.17.23.17,1-.06,1.46-.06,1,.06,1.4.06c.17,0,.26-.06.26-.19s-.11-.2-.41-.21c-.69-.05-.7-.43-.7-1.11v-5.47c0-1,.11-1.15.65-1.22s.47-.06.47-.22a.21.21,0,0,0-.23-.2c-.26,0-.75.06-.95.06s-.86-.06-1-.06-.14.07-.21.29a8.85,8.85,0,0,1-.39,1ZM386,322.26c-.67-.15-1.76-.38-1.76-1.33a1.23,1.23,0,0,1,1.25-1.21,1.41,1.41,0,0,1,1.45,1.35,1.29,1.29,0,0,1-.74,1.09Zm-.75.62a3.35,3.35,0,0,1,1.39,1.15c0,.06.72,1,1,1.54-.82,1-1.43,1.5-2.27,1.5a1.94,1.94,0,0,1-1.88-2A2.27,2.27,0,0,1,385.23,322.88Zm5.44-.73c.68-1,.85-1.12,1.34-1.25.17-.06.23-.12.23-.2a.22.22,0,0,0-.23-.22l-.78,0-1.29,0c-.1,0-.26,0-.26.19s.13.19.26.21.44.08.44.29c0,.49-.86,1.74-2,3.38-1-1.57-1.44-1.84-1.87-2.09a1.84,1.84,0,0,0,1.19-1.69,1.8,1.8,0,0,0-1.91-1.74,2,2,0,0,0-2.08,1.94,1.84,1.84,0,0,0,1.06,1.65,3.27,3.27,0,0,0-2.34,2.93,2.39,2.39,0,0,0,2.45,2.5c1.12,0,2.05-.56,3.13-2,1.06,1.33,1.79,2,2.77,2,.76,0,1.35-.48,1.35-.7a.18.18,0,0,0-.17-.16,1.57,1.57,0,0,0-.16,0,.93.93,0,0,1-.45.1c-1.28,0-2.6-2.14-2.64-2.23Zm-22.09-2.31v6.56c0,.82-.1,1-1,1-.07,0-.29,0-.29.2s.2.22.32.22,1.05-.06,1.33-.06,1.27.06,1.4.06c.52,0,.66,0,.66-.23s-.13-.19-.59-.22c-.72,0-.7-.45-.7-1.07v-6.49h1.43a1.6,1.6,0,0,1,1.87,1.29c0,.07,0,.2.19.2s.17,0,.17-.2c0,0,0-.27,0-.33l-.22-1.74c0-.27-.06-.42-.2-.42s-.14.06-.22.16c-.28.49-.51.49-1.37.49H367c-.7,0-1.06,0-1.32-.43-.08-.14-.13-.2-.23-.2s-.18.14-.23.46l-.2,1.63c0,.06,0,.35,0,.38a.18.18,0,0,0,.17.2.21.21,0,0,0,.2-.2,1.54,1.54,0,0,1,1.73-1.29ZM357.71,326l-5.45-6.49c-.2-.23-.29-.32-.39-.32s-.6.06-.83.06-.77-.06-1-.06-.31.09-.31.2a.18.18,0,0,0,.17.2,1.81,1.81,0,0,1,1,.31v6.39c0,.5,0,1.05-.49,1.09s-.7.07-.7.24,0,.19.23.19c0,0,.83-.06,1.19-.06s1,.06,1.16.06.31-.06.31-.2-.06-.17-.59-.25-.51-.28-.51-1v-5.93l6.19,7.34c.23.28.26.3.39.3s.22-.13.22-.59v-6.83c0-.6.1-1,.47-1,.65-.06.69-.06.69-.23s-.09-.22-.23-.22c-.3,0-.82.06-1.18.06s-1.06-.06-1.2-.06a.23.23,0,0,0-.25.2c0,.15.06.18.53.23s.56.15.56,1.11Zm-15.24-2.41c0,2.51-1.42,3.87-3.22,3.87s-3.26-1.56-3.26-4.06c0-2.11,1.07-3.86,3.21-3.86C341.62,319.58,342.47,321.7,342.47,323.63Zm1.38-.1a4.62,4.62,0,1,0-4.63,4.52A4.46,4.46,0,0,0,343.85,323.53Zm-20.69-3.74a5,5,0,0,1,.95-.08c1.45,0,2.2.79,2.2,1.89,0,1.45-1.08,2-2.46,2a6,6,0,0,1-.69,0Zm0,4.21c.38,0,.78,0,.91,0a3.57,3.57,0,0,0,.59,0l1.53,2.2c1.11,1.59,1.8,1.82,2.72,1.82.2,0,.63,0,.63-.21a.23.23,0,0,0-.06-.13,1.59,1.59,0,0,0-.33-.1c-1-.38-2.76-3-3.3-3.87a2.41,2.41,0,0,0,1.78-2.22c0-.76-.39-2.33-2.95-2.33a12.53,12.53,0,0,0-1.29.07c-.21,0-.74.06-1,.06s-.85-.06-1.19-.06-.32,0-.32.2,0,.16.52.23.57.48.57,1.32v5.28c0,.76-.07,1.1-.53,1.16s-.56.06-.56.24.14.19.26.19,1.16-.06,1.39-.06c0,0,1,.06,1.27.06s.4,0,.4-.2-.1-.19-.52-.25-.56-.43-.56-1.12Zm-9-4.16.1,1.12c0,.34.05.51.21.51s.15,0,.28-.45l.38-1.26a2.05,2.05,0,0,0,.1-.34c0-.09-.08-.13-.18-.13h-4.37l-.83,0c-.36,0-.66,0-.85,0s-.32,0-.32.2,0,.16.52.23.58.39.58,1.3v5.19c0,1,0,1.21-.64,1.28-.4.05-.47.06-.47.22s.12.2.26.2c.32,0,1.19-.06,1.46-.06.64,0,1.43.06,1.61.06s.35,0,.35-.2-.2-.2-.45-.2a1.09,1.09,0,0,1-.83-.25c-.14-.14-.14-.3-.14-1.32v-2h1.39c.92,0,1.59,0,1.68.7s.07.62.23.62.2-.2.2-.29-.06-1.06-.06-1.26.06-1.13.06-1.34,0-.26-.19-.26-.18.05-.23.46c-.08.82-.82.82-1.25.82h-1.83v-3.47Zm-19,3.87h5.57v2.63c0,.76-.07,1-.59,1.06s-.49.08-.49.23.1.22.33.22,1-.06,1.39-.06c.1,0,1.05.06,1.31.06.07,0,.29,0,.29-.2s-.2-.2-.39-.22c-.7,0-.7-.43-.7-1.09v-5.6c0-.66,0-1.05.7-1.09.2,0,.39,0,.39-.22s-.19-.2-.29-.2-.9.06-1.64.06c-.07,0-.8-.06-1-.06s-.37,0-.37.22,0,.17.49.23.59.31.59,1.06v2.43h-5.57v-2.43c0-.78.07-1,.58-1.06s.49-.07.49-.23-.11-.22-.4-.22c-.09,0-1,.06-1.31.06-.08,0-1-.06-1.29-.06s-.31,0-.31.2.18.2.38.22c.69,0,.71.42.71,1.09v5.6c0,.68,0,1-.71,1.09-.18,0-.38,0-.38.23s.22.19.28.19,1-.06,1.32-.06c.49,0,.94.06,1.28.06s.43,0,.43-.22-.05-.17-.49-.23-.58-.27-.58-1.06Zm-8.34-3.79c0-.3,0-.33-.09-.37a8.94,8.94,0,0,0-3-.52,4.42,4.42,0,0,0-4.75,4.5,4.34,4.34,0,0,0,4.59,4.52,8.37,8.37,0,0,0,3.05-.57c.14-.08.16-.1.17-.44l0-.93c0-.4,0-.52-.16-.52s-.15.08-.22.25a2.77,2.77,0,0,1-2.68,1.66c-2.31,0-3.39-1.83-3.39-3.93,0-2.64,1.53-4,3.38-4a3.37,3.37,0,0,1,2.23.8,1.15,1.15,0,0,1,.35.86c.06.46.06.51.25.51s.26-.21.24-.68Zm-16.29,3.87h-2.57l1.35-3.75h0Zm.18.54.41,1.26a4.48,4.48,0,0,1,.34,1.25c0,.33-.3.56-.8.59-.29,0-.41,0-.41.22s.21.2.36.2c.35,0,1.15-.06,1.73-.06.31,0,1.07.06,1.42.06.11,0,.23,0,.23-.2s0-.15-.46-.23c-.59-.12-.76-.25-1.34-2l-1.5-4.68c-.08-.21-.36-1.25-.42-1.39s-.12-.14-.27-.14h-.72c-.22,0-.27,0-.32.17-.26.79-.54,1.58-.83,2.37l-1.39,3.8c-.42,1.14-.65,1.8-1.44,1.91-.19,0-.36.05-.36.23s.13.19.22.19,1-.06,1.52-.06c.39,0,.93.06,1.23.06a.2.2,0,0,0,.23-.2c0-.19-.15-.2-.41-.22s-.78-.1-.78-.63a4.48,4.48,0,0,1,.33-1.21l.48-1.26Zm-16.13-4.49H258l.11,1.09c0,.4,0,.51.2.51s.18-.13.26-.38l.25-.78c.11-.36.18-.6.25-.87,0-.06-.05-.12-.18-.12H254l-1.15,0c-.31,0-.52,0-.52.2s.09.16.58.22.5.36.5,1.2v5.41c0,.89-.06,1-.62,1.11-.4.06-.47.08-.47.23s.1.19.23.19l1.1,0c.48,0,.94,0,1.11,0,.35,0,1.28,0,2,.06s1.19,0,1.87,0c.17,0,.23-.15.39-.5l.47-1.08a2.47,2.47,0,0,0,.19-.53s-.08-.1-.16-.1a.27.27,0,0,0-.19.1c-.07.07-.24.36-.29.43a2.12,2.12,0,0,1-2.22,1.05h-2.3v-3.39h1.85c.72,0,1.5,0,1.57.82,0,.36,0,.5.21.5s.18-.2.18-.26-.05-1.12-.05-1.34c0-.47,0-1,.05-1.23s0-.35-.18-.35-.2.26-.2.35c-.07,1-.86,1-1.51,1h-1.92Zm-12.33,3.93a4.66,4.66,0,0,1,1.94.27,1.75,1.75,0,0,1,.92,1.58,1.64,1.64,0,0,1-.95,1.55,4.58,4.58,0,0,1-1.51.22,10.86,10.86,0,0,1-1.15-.07v-3.55Zm-.75-3.91a5.68,5.68,0,0,1,1.07-.11,1.7,1.7,0,0,1,1.88,1.79,1.74,1.74,0,0,1-.91,1.56,4,4,0,0,1-1.52.15h-.52Zm-1.1,5.89c0,1.41,0,1.58-.56,1.65s-.55.08-.55.25.13.2.26.2.75-.06,1.37-.06,1.27.06,1.29.06l1.19,0a4,4,0,0,0,1.91-.4,2.17,2.17,0,0,0,1.08-1.9c0-1.52-1.57-2.12-2.56-2.12v0a2.15,2.15,0,0,0,1.87-2.05c0-.28-.09-2.16-2.9-2.16l-1.74.06c-.65,0-1.32-.06-1.42-.06s-.33,0-.33.23,0,.16.47.2c.62.08.62.33.62,1.32Z" transform="translate(-162.27 -282.26)"/><path class="cls-1" d="M554.61,327.22a7.38,7.38,0,0,1-2.05.28c-2.21,0-3.68-1.17-3.68-3.73,0-1.87.81-4.19,3.49-4.19,2.21,0,2.82,1.4,2.93,1.82s.14.5.3.5.2-.11.19-.48l-.06-1.6c0-.36,0-.4-.16-.44a19.9,19.9,0,0,0-3.08-.35c-3.71,0-5,2.62-5,4.58s1.27,4.44,4.83,4.44a17.09,17.09,0,0,0,3.4-.39v-1.75c0-.8,0-1.06.46-1.13.09,0,.26-.06.26-.22s-.22-.17-.26-.17l-1.25,0-1.58,0c-.14,0-.33,0-.33.17s.09.17.53.22c1,.08,1.05.14,1.05.84ZM540,326l-5.46-6.49c-.2-.23-.29-.32-.39-.32s-.6.06-.83.06-.76-.06-1-.06-.32.09-.32.2a.19.19,0,0,0,.18.2,1.81,1.81,0,0,1,1,.31v6.39c0,.5,0,1.05-.49,1.09s-.71.07-.71.24,0,.19.23.19c0,0,.84-.06,1.2-.06s1,.06,1.16.06.3-.06.3-.2-.06-.17-.59-.25-.5-.28-.5-1v-5.93l6.19,7.34c.23.28.26.3.39.3s.21-.13.21-.59v-6.83c0-.6.1-1,.48-1,.64-.06.69-.06.69-.23s-.09-.22-.23-.22c-.31,0-.82.06-1.18.06s-1.06-.06-1.21-.06a.21.21,0,0,0-.24.2c0,.15.06.18.53.23s.56.15.56,1.11Z" transform="translate(-162.27 -282.26)"/><rect class="cls-1" x="409.36" y="40.74" width="58.32" height="1"/><rect class="cls-1" y="40.74" width="58.32" height="1"/></svg>