<svg id="Layer_1" data-name="Layer 1" xmlns="http://www.w3.org/2000/svg" viewBox="0 0 480.7 223.22"><defs><style>.cls-1{fill:#fff;}</style></defs><path class="cls-1" d="M498.7,253l-11.65,16.68L475.25,253h-.14l-11.84,22.43v29h11.22V272.58l12.14,15.79.06.11h.49l12.27-16.05v32h11.3V253Zm-98.84,41.5v-11h20.65v-10H399.86V263h23.48V253H388.4v51.47h21.68l5.26-10Zm203-16.34L618.27,253H605.43l-9.12,16.31-9-16.31H574.21l15.27,25.29-16,26.18h12.83l9.73-17.27,9.66,17.27h13.14Zm-53.11,5.47H538.64l5.57-15.76Zm-10.79-30.92-19.36,51.76h11.64l3.9-11.09h18.12l4,11.09h11.94l-19.35-51.76ZM364.5,270.4v.08c0,4.66-3.18,7.44-8.49,7.44h-8V263h7.74C361.49,263,364.5,265.53,364.5,270.4Zm11.61-.22v-.29c0-5-1.58-9.11-4.57-12-3.4-3.24-8.48-5-14.69-5H336.51v51.47H348V287.68h6.61l9.87,16.77h13.21l-11.47-19.07C370.81,283.4,376.11,279.17,376.11,270.18Z" transform="translate(-147.54 -190.79)"/><polygon class="cls-1" points="301.54 62.19 274.36 113.66 288.37 113.66 315.55 62.19 301.54 62.19"/><path class="cls-1" d="M623.7,254.86h.49c.57,0,1-.2,1-.72s-.27-.75-1-.75a2.81,2.81,0,0,0-.49,0Zm0,2.33H623V253a7.63,7.63,0,0,1,1.21-.1,2.33,2.33,0,0,1,1.34.32,1,1,0,0,1,.4.87,1.05,1.05,0,0,1-.84,1v0c.37.07.63.41.72,1a3.55,3.55,0,0,0,.27,1h-.72a2.77,2.77,0,0,1-.29-1.07.81.81,0,0,0-.93-.74h-.48Zm.72-5.39a3.21,3.21,0,0,0,0,6.41,3.21,3.21,0,0,0,0-6.41Zm0-.59a3.8,3.8,0,1,1-3.84,3.79,3.78,3.78,0,0,1,3.84-3.79Z" transform="translate(-147.54 -190.79)"/><path class="cls-1" d="M386.21,356.13a19.45,19.45,0,0,1-5.37,14.1q-5.37,5.56-14,5.56t-14.14-5.56a19.32,19.32,0,0,1-5.42-14.1v-8.34a19.42,19.42,0,0,1,5.4-14.1q5.4-5.58,14.1-5.57t14.05,5.57a19.39,19.39,0,0,1,5.42,14.1Zm-10.62-8.41a13.5,13.5,0,0,0-2.31-8.14,8.38,8.38,0,0,0-13.14,0,13.63,13.63,0,0,0-2.28,8.16v8.41a13.68,13.68,0,0,0,2.31,8.21,7.71,7.71,0,0,0,6.63,3.18,7.53,7.53,0,0,0,6.49-3.18,13.75,13.75,0,0,0,2.3-8.21Z" transform="translate(-147.54 -190.79)"/><path class="cls-1" d="M422.66,375.88h-7.2l-11.38-19.76-.13,0v19.72h-7.22V344.47H404l11.39,19.74.12,0v-19.7h7.2Z" transform="translate(-147.54 -190.79)"/><path class="cls-1" d="M464.38,337.82H452.25v38.06H441.6V337.82H429.69v-8.27h34.69Z" transform="translate(-147.54 -190.79)"/><path class="cls-1" d="M488,375.88h-7.2V363.24H469.29v12.64h-7.22V344.47h7.22v13.16H480.8V344.47H488Z" transform="translate(-147.54 -190.79)"/><path class="cls-1" d="M511.13,362.44h-11v7.83H513.3v5.61H493V344.47h20.38v5.61H500.17v6.75h11Z" transform="translate(-147.54 -190.79)"/><path class="cls-1" d="M522.94,375.88V329.55h15q8.53,0,13.31,3.19t4.78,9.53a11.28,11.28,0,0,1-1.52,5.87,9.29,9.29,0,0,1-4.72,3.87,9.56,9.56,0,0,1,6.06,3.69,11,11,0,0,1,2,6.47q0,6.76-4.51,10.25t-12.91,3.46Zm10.65-27h4.19a9.88,9.88,0,0,0,5.73-1.36,4.64,4.64,0,0,0,1.9-4,5,5,0,0,0-1.83-4.31q-1.83-1.35-5.61-1.35h-4.38Zm0,7.12v11.62h6.84a8.09,8.09,0,0,0,5.1-1.36,4.94,4.94,0,0,0,1.7-4.15,6.21,6.21,0,0,0-1.49-4.49c-1-1-2.65-1.55-4.93-1.62h-7.22Z" transform="translate(-147.54 -190.79)"/><path class="cls-1" d="M580.86,369.77h-9.25l-1.79,6.11h-7.6l10.14-31.41h3.87v0l0,0h3.86l10.17,31.41h-7.61Zm-7.58-5.6h5.91l-2.9-9.75h-.13Z" transform="translate(-147.54 -190.79)"/><path class="cls-1" d="M599.76,358.19h.13l6.19-13.72h7.82l-10.55,20.36v11.05h-7.2V364.51l-10.38-20h7.82Z" transform="translate(-147.54 -190.79)"/><path class="cls-1" d="M224.56,414a1.84,1.84,0,0,1-1.78-1.35l-3-10.63a1.88,1.88,0,0,1-1.57-1.86v-1.31a1.89,1.89,0,0,1,1.89-1.89h20.78a1.89,1.89,0,0,1,1.89,1.89v1.31a1.9,1.9,0,0,1-1.62,1.87l-3,10.62a1.84,1.84,0,0,1-1.78,1.35Z" transform="translate(-147.54 -190.79)"/><path class="cls-1" d="M230.31,190.81c-2-.07-12.51-.14-18.67,5.05,0,0-17.13-2.79-30.71,10.29-3.24,0-16.41,7.47-26.83,25.37a69.47,69.47,0,0,0-6.56,15.27,28.49,28.49,0,0,1,26.68-12c1.16-.91,11.59-12.25,33.23-8.31,3-3.1,13.81-6.4,22.86-6.51,9.05.11,19.91,3.41,22.87,6.51,21.63-3.94,32.06,7.4,33.22,8.31a28.58,28.58,0,0,1,26.72,12,70,70,0,0,0-6.59-15.26c-10.42-17.9-23.6-25.4-26.83-25.37C266.11,193.07,249,195.86,249,195.86c-6.15-5.19-16.63-5.12-18.67-5.05" transform="translate(-147.54 -190.79)"/><path class="cls-1" d="M211.64,195.86s-17.13-2.79-30.71,10.29c-3.23,0-16.41,7.47-26.83,25.38a69.19,69.19,0,0,0-6.56,15.26,28.49,28.49,0,0,1,26.68-12c1.16-.91,11.56-12.21,33.11-8.33,2.07-17.37,4.31-30.58,4.31-30.58" transform="translate(-147.54 -190.79)"/><path class="cls-1" d="M174.44,234.5l0,0c2.68-16.33,5.91-28.77,5.91-28.77-3.23.07-16.2,7.91-26.14,26.08a69,69,0,0,0-6.16,15.44,28.51,28.51,0,0,1,26.36-12.73" transform="translate(-147.54 -190.79)"/><path class="cls-1" d="M249,195.86s17.13-2.79,30.72,10.29c3.23,0,16.41,7.47,26.82,25.38a69.28,69.28,0,0,1,6.6,15.25,28.58,28.58,0,0,0-26.72-12c-1.16-.91-11.55-12.21-33.11-8.33-2.06-17.37-4.31-30.58-4.31-30.58" transform="translate(-147.54 -190.79)"/><path class="cls-1" d="M286.4,234.77l0,0c-3.12-16.25-6.67-28.59-6.67-28.59,3.23,0,16.41,7.47,26.83,25.38a69.72,69.72,0,0,1,6.59,15.25,28.56,28.56,0,0,0-26.72-12" transform="translate(-147.54 -190.79)"/><polygon class="cls-1" points="83.06 208.94 82.83 208.94 73.51 208.94 73.63 209.24 77.01 221.37 83.06 221.37 83.06 208.94"/><path class="cls-1" d="M240.91,400.21H220.13s0,0,0,0v-1.31a.05.05,0,0,1,0-.05h20.78a0,0,0,0,1,0,.05v1.31a0,0,0,0,1,0,0" transform="translate(-147.54 -190.79)"/><polygon class="cls-1" points="92.14 209.78 92.23 209.42 73.67 209.42 73.79 209.78 92.14 209.78"/><path class="cls-1" d="M287.71,298.67c-.25,0-10.81-11.05-31.88-9.12-1.16-.7-9-4.84-25.52-5.72-15.24.31-24.37,5-25.53,5.72-21.06-1.93-31.62,9.12-31.88,9.12-12.65-.35-21.15,8.53-21.91,9.56.27.7.27.68.53,1.33,7.92,19.71,49.67,62.13,68.34,80.19h20.9c18.66-18.06,60.42-60.48,68.34-80.19.26-.65.26-.63.52-1.33-.75-1-9.26-9.91-21.91-9.56" transform="translate(-147.54 -190.79)"/><path class="cls-1" d="M255.84,289.55c21.06-1.93,31.62,9.12,31.88,9.12,12.65-.35,21.15,8.53,21.9,9.56-.26.7-.26.68-.52,1.33-7.92,19.71-49.68,62.13-68.34,80.19H235c14.52-31.18,19.78-67.54,20.82-100.2" transform="translate(-147.54 -190.79)"/><path class="cls-1" d="M287.71,298.67h0c12.65-.35,21.16,8.53,21.91,9.56-.26.7-.26.68-.52,1.33-7.92,19.71-49.68,62.13-68.34,80.19,0,0,27.63-40.49,43.37-79.33a71.88,71.88,0,0,0,3.58-11.75" transform="translate(-147.54 -190.79)"/><path class="cls-1" d="M204.78,289.55c-21.06-1.93-31.62,9.12-31.88,9.12-12.65-.35-21.15,8.53-21.9,9.56.25.7.26.68.52,1.33,7.92,19.71,49.67,62.13,68.34,80.19h5.74c-14.52-31.18-19.78-67.54-20.82-100.2" transform="translate(-147.54 -190.79)"/><path class="cls-1" d="M172.9,298.67h0c-12.65-.35-21.15,8.53-21.9,9.56.25.7.26.68.52,1.33,7.92,19.71,49.67,62.13,68.34,80.19,0,0-27.63-40.49-43.38-79.33a73.89,73.89,0,0,1-3.58-11.75" transform="translate(-147.54 -190.79)"/><path class="cls-1" d="M178.89,259.36v0c.09,2.13-1.28,3.84-3.65,4.64-1.42.48-2.14.73-3.55,1.24-.14-2.74-.21-4.11-.34-6.85,1.38-.5,2.07-.73,3.46-1.21,2.56-.86,4-.09,4.08,2.14m5.24-1.64c0-.06,0-.09,0-.14-.09-2.28-.88-4-2.3-4.89-1.6-1-3.94-1.13-6.75-.19-3.06,1-6.11,2.12-9.1,3.32l1.29,23.49c2-.79,3-1.17,5.05-1.9l-.4-7.68c1.18-.42,1.76-.62,2.94-1,1.9,2.47,2.85,3.72,4.73,6.25,2.35-.73,3.53-1.08,5.89-1.72q-2.72-3.66-5.49-7.26A9.85,9.85,0,0,0,184.13,257.72Z" transform="translate(-147.54 -190.79)"/><path class="cls-1" d="M264.41,260.54c-2-.39-3.05-.56-5.09-.89,1.1-2.74,1.65-4.1,2.75-6.82.94,3.08,1.41,4.62,2.34,7.71m-4.61-15.11q-4.8,11.3-9.41,22.64c2.14.23,3.2.37,5.33.66.75-1.94,1.13-2.9,1.89-4.84,3.32.5,5,.79,8.27,1.45.67,2.18,1,3.27,1.66,5.46,2.16.46,3.24.71,5.39,1.23q-3.93-12.88-8.09-25.71C262.83,245.94,261.82,245.76,259.8,245.43Z" transform="translate(-147.54 -190.79)"/><path class="cls-1" d="M289.36,264.66q3.67-4.52,7.46-9c-2.28-.9-3.43-1.32-5.73-2.14-1.78,2.4-2.67,3.62-4.45,6.07q-1.83-4.4-3.72-8.75c-2.38-.72-3.58-1.06-6-1.69q3.3,6.75,6.46,13.57-3.88,5-7.66,10c2.31.6,3.45.92,5.74,1.61,1.87-2.65,2.81-4,4.69-6.56,1.32,3.11,2.61,6.23,3.9,9.36,2.3.82,3.45,1.26,5.74,2.16-2.09-4.9-4.25-9.78-6.44-14.65" transform="translate(-147.54 -190.79)"/><path class="cls-1" d="M196.17,266.05l-.15-5c3.13-.66,6.3-1.22,9.47-1.68,0-1.84-.06-2.76-.11-4.6-3.17.47-6.35,1-9.5,1.69-.06-2-.09-2.92-.14-4.87,3.61-.7,7.21-1.33,10.85-1.89l-.1-4.59c-5.43.83-10.8,1.85-16.17,3.07l.81,23.64c3.24-.78,6.53-1.46,9.81-2,.91-2,1.37-3,2.29-5-2.83.46-4.24.73-7.06,1.3" transform="translate(-147.54 -190.79)"/><path class="cls-1" d="M240.84,243.56q-2.78,3.72-5.49,7.48-2.72-3.89-5.51-7.72h-.06q-2.79,5.22-5.5,10.49,0,6.69.08,13.39c2.07-.08,3.1-.11,5.17-.14l0-14.7q2.85,3.63,5.63,7.32l0,0h.23c1.88-2.42,3.8-4.81,5.73-7.18L241,267.31c2.08.11,3.12.18,5.2.36l.29-23.73c-2.26-.19-3.39-.27-5.65-.38" transform="translate(-147.54 -190.79)"/><path class="cls-1" d="M212.18,268.13q6-12.51,12.42-24.84c-2.63.1-3.94.18-6.57.38q-6.3,12.56-12.25,25.29c2.55-.38,3.84-.55,6.4-.83" transform="translate(-147.54 -190.79)"/><path class="cls-1" d="M251.55,405.08h.85c1,0,1.79-.35,1.79-1.24,0-.64-.47-1.26-1.79-1.26a5.93,5.93,0,0,0-.85.05Zm0,4h-1.17v-7.21a14.16,14.16,0,0,1,2.08-.17,4,4,0,0,1,2.29.55,1.69,1.69,0,0,1,.67,1.49,1.79,1.79,0,0,1-1.44,1.75v.06c.65.12,1.09.69,1.23,1.75a6.06,6.06,0,0,0,.48,1.78h-1.24a5.27,5.27,0,0,1-.49-1.83,1.38,1.38,0,0,0-1.59-1.27h-.82Zm1.23-9.22a5.48,5.48,0,1,0,5.31,5.49,5.38,5.38,0,0,0-5.31-5.49Zm0-1a6.48,6.48,0,1,1-6.57,6.47,6.45,6.45,0,0,1,6.57-6.47Z" transform="translate(-147.54 -190.79)"/></svg>